HIERARCHY
ROOT Hips
{
    OFFSET 0.000000 0.000000 0.000000
    CHANNELS 6 Xposition Yposition Zposition Zrotation Xrotation Yrotation
    JOINT Spine
    {
        OFFSET -0.000000 8.267054 0.000000
        CHANNELS 3 Zrotation Xrotation Yrotation
        JOINT Spine1
        {
            OFFSET -0.000000 23.684998 0.000000
            CHANNELS 3 Zrotation Xrotation Yrotation
            JOINT Neck
            {
                OFFSET -0.000000 23.587730 2.144339
                CHANNELS 3 Zrotation Xrotation Yrotation
                JOINT Head
                {
                    OFFSET -0.000000 14.114483 -2.016355
                    CHANNELS 3 Zrotation Xrotation Yrotation
                    End Site
                    {
                        OFFSET -0.000000 25.204432 0.000000
                    }
                }
            }
            JOINT LeftShoulder
            {
                OFFSET 4.070090 22.062094 -0.247321
                CHANNELS 3 Zrotation Xrotation Yrotation
                JOINT LeftArm
                {
                    OFFSET 10.395479 0.000000 0.000000
                    CHANNELS 3 Zrotation Xrotation Yrotation
                    JOINT LeftForeArm
                    {
                        OFFSET 37.713577 0.000000 0.000000
                        CHANNELS 3 Zrotation Xrotation Yrotation
                        JOINT LeftHand
                        {
                            OFFSET 20.284107 0.000000 0.000000
                            CHANNELS 3 Zrotation Xrotation Yrotation
                            End Site
                            {
                                OFFSET 15.122660 0.000000 0.000000
                            }
                        }
                    }
                }
            }
            JOINT RightShoulder
            {
                OFFSET -3.979272 22.062094 -0.247321
                CHANNELS 3 Zrotation Xrotation Yrotation
                JOINT RightArm
                {
                    OFFSET -10.395479 0.000000 0.000000
                    CHANNELS 3 Zrotation Xrotation Yrotation
                    JOINT RightForeArm
                    {
                        OFFSET -37.713577 0.000000 0.000000
                        CHANNELS 3 Zrotation Xrotation Yrotation
                        JOINT RightHand
                        {
                            OFFSET -20.284107 0.000000 0.000000
                            CHANNELS 3 Zrotation Xrotation Yrotation
                            End Site
                            {
                                OFFSET -15.122660 0.000000 0.000000
                            }
                        }
                    }
                }
            }
        }
    }
    JOINT LeftUpLeg
    {
        OFFSET 10.081773 0.000000 0.000000
        CHANNELS 3 Zrotation Xrotation Yrotation
        JOINT LeftLeg
        {
            OFFSET -0.000000 -36.382099 0.000000
            CHANNELS 3 Zrotation Xrotation Yrotation
            JOINT LeftFoot
            {
                OFFSET -0.000000 -49.182560 0.000000
                CHANNELS 3 Zrotation Xrotation Yrotation
                JOINT LeftToeBase
                {
                    OFFSET -0.000000 -6.553152 15.122660
                    CHANNELS 3 Zrotation Xrotation Yrotation
                    End Site
                    {
                        OFFSET -0.000000 0.000000 4.032709
                    }
                }
            }
        }
    }
    JOINT RightUpLeg
    {
        OFFSET -10.081773 0.000000 0.000000
        CHANNELS 3 Zrotation Xrotation Yrotation
        JOINT RightLeg
        {
            OFFSET -0.000000 -36.382099 0.000000
            CHANNELS 3 Zrotation Xrotation Yrotation
            JOINT RightFoot
            {
                OFFSET -0.000000 -49.182560 0.000000
                CHANNELS 3 Zrotation Xrotation Yrotation
                JOINT RightToeBase
                {
                    OFFSET -0.000000 -6.553152 15.122660
                    CHANNELS 3 Zrotation Xrotation Yrotation
                    End Site
                    {
                        OFFSET -0.000000 0.000000 4.032709
                    }
                }
            }
        }
    }
}
MOTION
Frames:    11
Frame Time:    0.008333
-41.903675    92.610939    -5.954459    -8.861793    7.670794    -82.610458    -6.686765    -4.230813    -1.962782    -0.087178    4.447721    -1.712111    -5.697920    30.061193    -24.152493    35.902756    5.386822    -22.827570    7.876099    11.000222    -8.655076    -58.316422    61.616447    -16.645336    0.951092    -20.137146    -19.402485    -3.515874    -20.172915    6.526341    -2.612404    8.839824    -2.222048    67.151268    48.467899    12.905300    -4.712750    -17.099195    27.348337    -1.147674    -15.972378    -2.848681    10.441392    -0.228687    -16.300882    0.681463    30.044102    -15.863600    -0.376965    -13.610245    -9.778403    0.000000    0.000000    0.000000    -10.656338    -21.077940    9.634758    1.556225    17.001106    0.262017    15.544727    12.289753    -2.884641    0.000000    0.000000    0.000000    
-42.160099    92.608292    -6.269973    -8.874240    7.635324    -81.837692    -6.712765    -4.287917    -2.018042    -0.088994    4.456933    -1.762978    -5.618826    30.170925    -24.321426    36.021801    5.273038    -22.957392    7.980404    11.049580    -8.792576    -58.141552    62.107059    -16.740004    1.002074    -20.246801    -19.585052    -3.592281    -20.276978    6.527597    -2.573294    8.837864    -2.293193    67.090431    48.758709    12.926087    -4.993659    -17.380299    27.252129    -0.919138    -16.198561    -2.921928    10.738194    -0.177052    -16.535358    0.544942    29.899120    -15.412016    -0.519303    -13.689239    -9.597507    0.000000    0.000000    0.000000    -10.789576    -20.917894    9.446044    1.576817    17.166025    0.471773    15.739811    12.513751    -2.738897    0.000000    0.000000    0.000000    
-42.418491    92.602180    -6.575489    -8.888426    7.594919    -81.049713    -6.758296    -4.326699    -2.093212    -0.028884    4.469865    -1.836520    -5.621206    30.266462    -24.457539    36.187115    5.143105    -23.052738    8.023118    11.052720    -8.882355    -58.033936    62.525558    -16.766026    1.099323    -20.331097    -19.715410    -3.933621    -20.361582    6.496904    -2.565912    8.913550    -2.397539    66.996208    48.543251    13.068873    -4.949056    -17.317192    27.140173    -1.083958    -16.146444    -2.913200    11.014567    -0.216353    -16.331366    0.620586    29.858307    -14.799563    -0.886965    -13.642455    -10.200027    0.000000    0.000000    0.000000    -10.920473    -20.726198    9.245042    1.539458    17.334473    0.736878    16.066765    12.730679    -2.556770    0.000000    0.000000    0.000000    
-42.631905    92.581795    -6.904019    -8.856330    7.549065    -80.156601    -6.800316    -4.261966    -2.208353    -0.003797    4.323778    -1.954918    -5.606391    30.360552    -24.649298    36.348351    5.097685    -23.233395    8.115583    11.042837    -9.013400    -57.986423    62.950130    -16.746969    1.164754    -20.317173    -19.834497    -4.053021    -20.341013    6.460854    -2.527253    8.922178    -2.456848    67.048958    48.372486    13.002135    -5.001019    -17.298880    27.047144    -1.136839    -16.118292    -2.962232    11.285310    -0.442666    -16.301249    0.636499    29.986931    -14.650354    -1.074412    -13.677332    -10.218915    0.000000    0.000000    0.000000    -11.125171    -20.583050    9.060087    1.476660    17.627584    1.480053    16.525921    12.693673    -2.756756    0.000000    0.000000    0.000000    
-42.898911    92.564613    -7.231191    -8.874610    7.465295    -79.364235    -6.872807    -4.291483    -2.274515    0.056144    4.354874    -2.018858    -5.607748    30.453638    -24.821640    36.496037    4.949925    -23.362835    8.026933    10.466236    -9.314686    -59.165447    63.404358    -15.272714    1.289591    -20.296318    -19.987526    -4.265663    -20.307169    6.400958    -2.534496    8.850652    -2.480685    67.159798    48.195507    12.853815    -4.952110    -17.350727    27.030731    -1.091756    -16.184170    -2.902048    11.525570    -0.504068    -16.052876    0.774882    30.031822    -14.709531    -1.178644    -13.693092    -10.065101    0.000000    0.000000    0.000000    -11.288746    -20.383936    8.966914    1.467978    17.900181    1.846385    16.674850    12.704022    -2.780359    0.000000    0.000000    0.000000    
-43.134285    92.541740    -7.576250    -8.855330    7.406546    -78.638718    -6.940876    -4.262851    -2.327203    0.122961    4.267640    -2.073176    -5.599971    30.492060    -24.963499    36.601597    4.886330    -23.486280    8.080481    10.455762    -9.372558    -59.094982    63.770851    -15.252081    1.413968    -20.295181    -20.104956    -4.500833    -20.296366    6.398397    -2.554684    8.894135    -2.543466    67.217934    48.057697    12.838418    -5.004657    -17.423447    26.979479    -0.969135    -16.251305    -2.795834    11.812799    -0.648920    -15.842324    0.803316    30.115738    -14.752705    -0.982011    -13.852294    -9.968605    0.000000    0.000000    0.000000    -11.400032    -20.254293    8.997249    1.478916    18.177549    1.838542    16.841875    12.873163    -2.581340    0.000000    0.000000    0.000000    
-43.384228    92.518341    -7.905135    -8.828176    7.350297    -77.933731    -6.874845    -4.347939    -2.339540    0.009721    4.322754    -2.078651    -5.538110    30.589983    -25.147310    36.805676    4.712390    -23.604509    8.215074    10.394572    -9.489794    -59.017059    64.052567    -15.265097    1.468360    -20.291597    -20.186756    -4.596507    -20.287346    6.388256    -2.462561    8.854915    -2.556962    67.246941    47.838676    12.738987    -4.963228    -17.333235    26.931932    -1.431491    -16.159367    -2.961035    12.062606    -0.767392    -15.642135    0.860732    30.181908    -14.637527    -1.079342    -13.859968    -9.992647    0.000000    0.000000    0.000000    -11.516221    -20.128483    9.060805    1.504349    18.481022    1.788553    16.892708    13.074744    -2.370909    0.000000    0.000000    0.000000    
-43.645714    92.478119    -8.211121    -8.851231    7.242856    -77.252434    -6.865175    -4.363215    -2.365615    -0.030810    4.353683    -2.102611    -5.600219    30.632763    -25.294283    37.001144    4.669923    -23.742031    8.255825    10.366897    -9.519544    -58.868561    64.279984    -15.325000    1.516509    -20.269899    -20.278603    -4.744358    -20.265535    6.422517    -2.423510    8.830268    -2.553284    67.310455    47.724491    12.603794    -5.086164    -17.394053    26.887209    -1.314556    -16.197405    -2.938254    12.257428    -0.819659    -15.510672    0.917143    30.268276    -14.546212    -1.267456    -13.897071    -10.060795    0.000000    0.000000    0.000000    -11.710109    -19.905876    9.174637    1.577298    18.775343    1.923851    17.082804    13.071542    -2.336059    0.000000    0.000000    0.000000    
-43.912884    92.436722    -8.537308    -8.836772    7.119392    -76.533882    -6.930508    -4.387479    -2.407876    0.012963    4.350885    -2.142561    -5.516449    30.747532    -25.431875    37.007786    4.399893    -23.794506    8.297561    10.371625    -9.595116    -58.752014    64.561676    -15.360832    1.692728    -20.273540    -20.352953    -4.932689    -20.249155    6.440018    -2.415662    8.893163    -2.567329    67.240540    47.606071    12.596079    -5.042592    -17.425192    26.942102    -1.656462    -16.230988    -2.717505    12.452791    -0.942290    -15.326927    0.987724    30.383272    -14.463698    -1.282042    -13.908634    -9.708947    0.000000    0.000000    0.000000    -11.901590    -19.713564    9.305532    1.633849    19.103752    1.630332    17.047716    13.174862    -1.942594    0.000000    0.000000    0.000000    
-44.182907    92.378952    -8.847911    -8.872063    6.988095    -75.847557    -6.924902    -4.391672    -2.428004    0.015552    4.414840    -2.162789    -5.525504    30.811634    -25.627960    37.048244    4.235401    -23.952822    8.268056    10.357159    -9.616582    -58.532513    64.638138    -15.464149    1.716912    -20.230787    -20.406984    -5.058136    -20.206743    6.406152    -2.445641    8.908048    -2.592647    67.248093    47.446404    12.551915    -5.080470    -17.419924    26.935465    -1.598038    -16.218586    -2.715525    12.617292    -1.023037    -14.993566    1.194406    30.536346    -14.779566    -1.738485    -13.707995    -9.462296    0.000000    0.000000    0.000000    -12.117181    -19.473295    9.334641    1.700683    19.467375    1.846203    17.236284    13.082425    -2.001144    0.000000    0.000000    0.000000    
-44.456627    92.310928    -9.167994    -8.892514    6.830980    -75.218475    -6.894807    -4.416319    -2.422055    -0.070643    4.487111    -2.153138    -5.575997    30.779604    -25.699835    37.245895    4.177257    -23.996763    8.336743    10.344592    -9.645200    -58.435371    64.598289    -15.518235    1.762380    -20.158039    -20.421249    -5.130904    -20.129662    6.400035    -2.393140    8.894188    -2.581323    67.197105    47.376968    12.486593    -5.110268    -17.447247    26.952785    -1.666559    -16.236015    -2.778978    12.766698    -1.115928    -14.444723    1.482931    30.716078    -15.214107    -1.772195    -13.740770    -9.322029    0.000000    0.000000    0.000000    -12.336493    -19.274168    9.426151    1.778097    19.889189    1.780529    17.354763    13.103579    -1.811885    0.000000    0.000000    0.000000    
